<svg width="40" height="45" viewBox="0 0 40 45" fill="none" xmlns="http://www.w3.org/2000/svg">
<path d="M13.2637 3.54297L13.4873 3.63867L13.708 3.53613L20.001 0.598633L26.4033 3.53711L26.6289 3.64062L26.8545 3.53906L33.3662 0.59668L39.4561 3.39062V40.7412L33.4668 43.5352L26.5166 40.5869L26.29 40.4902L26.0684 40.5977L19.9922 43.5303L13.4844 40.5918L13.2607 40.4902L13.0371 40.5918L6.52539 43.5312L0.543945 40.7412V3.38672L6.42383 0.595703L13.2637 3.54297Z" fill="#F6F6F6" stroke="black" stroke-width="1.08696"/>
<rect x="4.23913" y="6.41305" width="31.3043" height="31.5217" fill="#EB8B8B" stroke="black" stroke-width="1.08696"/>
<path d="M27.3194 14.5621C27.3194 15.5243 26.6381 16.3043 25.7976 16.3043C24.9572 16.3043 24.2759 15.5243 24.2759 14.5621C24.2759 14.2912 25.1089 14.3571 25.8006 14.1521C26.5455 13.9314 27.3194 13.5999 27.3194 14.5621Z" fill="black"/>
<path d="M14.4933 14.5621C14.4933 15.5243 15.1746 16.3043 16.015 16.3043C16.8554 16.3043 17.5367 15.5243 17.5367 14.5621C17.5367 14.2912 16.7037 14.3571 16.012 14.1521C15.2671 13.9314 14.4933 13.5999 14.4933 14.5621Z" fill="black"/>
<circle cx="20.4715" cy="20.5435" r="2.82609" stroke="black" stroke-width="1.08696"/>
<path d="M28.8291 30.4307C28.8291 30.4307 23.9234 26.0375 20.1468 25.6642C16.3473 25.2887 10.6522 28.6818 10.6522 28.6818" stroke="black" stroke-width="1.08696"/>
</svg>
