<svg width="40" height="45" viewBox="0 0 40 45" fill="none" xmlns="http://www.w3.org/2000/svg">
<path d="M13.2637 3.54297L13.4873 3.63867L13.708 3.53613L20.001 0.598633L26.4033 3.53711L26.6289 3.64062L26.8545 3.53906L33.3662 0.59668L39.4561 3.39062V40.7412L33.4668 43.5352L26.5166 40.5869L26.29 40.4902L26.0684 40.5977L19.9922 43.5303L13.4844 40.5918L13.2607 40.4902L13.0371 40.5918L6.52539 43.5312L0.543945 40.7412V3.38672L6.42383 0.595703L13.2637 3.54297Z" fill="#F6F6F6" stroke="black" stroke-width="1.08696"/>
<rect x="4.23913" y="6.41305" width="31.3043" height="31.5217" fill="#FFEFB6" stroke="black" stroke-width="1.08696"/>
<ellipse cx="15.3261" cy="15.3265" rx="1.19565" ry="1.84783" fill="black"/>
<ellipse cx="25.7609" cy="15.3265" rx="1.19565" ry="1.84783" fill="black"/>
<circle cx="20.1087" cy="21.413" r="2.82609" stroke="black" stroke-width="1.08696"/>
<path d="M11.087 24.7826C11.087 24.7826 16.3909 28.6858 20.1859 28.6957C24.0039 28.7056 29.3478 24.7826 29.3478 24.7826" stroke="black" stroke-width="1.08696"/>
</svg>
